<?xml version="1.0" encoding="UTF-8"?>
<svg width="256" height="53" version="1.1" viewBox="0 0 67.733 14.023" xmlns="http://www.w3.org/2000/svg">
 <path d="m35.844 0.13281-0.10335 0.1018v3.4902c-0.38934-0.20714-0.83591-0.31264-1.342-0.31264-0.53534 0-1.0258 0.14747-1.4687 0.44132-0.44287 0.29385-0.79687 0.72745-1.0645 1.3007-0.2628 0.56844-0.39429 1.2674-0.39429 2.096 0 0.72741 0.095456 1.3717 0.28526 1.9353 0.1898 0.5588 0.47987 0.99827 0.8692 1.3162 0.38934 0.31794 0.87772 0.47698 1.4666 0.47698 0.4818 0 0.92045-0.11656 1.3147-0.34778 0.30088-0.17433 0.51799-0.41852 0.73588-0.66405 0.048042 0.081169 0.029809 0.20017 0.088367 0.27544 0.32607 0.4191 0.81023 0.6327 1.4526 0.64234 0.14113-0.1108 0.28106-0.28244 0.4222-0.51367s0.23237-0.44777 0.2713-0.65009c-0.12167-0.086711-0.22082-0.22451-0.29869-0.41238-0.073-0.18787-0.1111-0.39561-0.1111-0.62684v-7.1913c0-0.50099-0.093904-0.8524-0.2837-1.0547-0.18494-0.20232-0.50105-0.30283-0.94878-0.30283h-0.89091zm16.344 0.32401c-0.19467 0-0.39298 0.023308-0.59738 0.066663-0.19954 0.043355-0.36388 0.095506-0.49041 0.15813-0.053534 0.13488-0.093791 0.27648-0.12299 0.42582-0.0292 0.14452-0.044958 0.28525-0.044958 0.42013 0 0.13007 0.015759 0.26821 0.044958 0.41755 0.029201 0.14934 0.069458 0.29007 0.12299 0.42013 0.11193 0.067442 0.27288 0.12253 0.48214 0.16588 0.20927 0.038538 0.41098 0.058912 0.60565 0.058912 0.19954-1e-7 0.40332-0.023308 0.60772-0.066663 0.20927-0.043355 0.36814-0.095506 0.48008-0.15813 0.053534-0.13007 0.095857-0.2708 0.12506-0.42013s0.042892-0.28748 0.042892-0.41755c0-0.12525-0.013692-0.26305-0.042892-0.41238-0.029201-0.15415-0.071524-0.29868-0.12506-0.43357-0.11193-0.062624-0.27081-0.11478-0.48008-0.15813-0.2044-0.043355-0.40818-0.066663-0.60772-0.066663zm-48.348 0.23255c-0.66187 1e-8 -1.2623 0.12761-1.8025 0.38292-0.53534 0.2505-0.96111 0.6019-1.2774 1.0547-0.31634 0.448-0.47439 0.97192-0.47439 1.5741 0 0.68887 0.1975 1.2433 0.5917 1.6624 0.3942 0.4191 0.89257 0.75513 1.496 1.0056l1.7596 0.72244c0.4088 0.1686 0.66365 0.35268 0.76585 0.55501 0.1022 0.19751 0.154 0.37502 0.154 0.52917 0 0.23123-0.09412 0.44622-0.27905 0.64854-0.18493 0.20232-0.48869 0.30438-0.91209 0.30438-0.52074 1e-7 -1.042-0.096183-1.5627-0.28887-0.52074-0.19751-0.98677-0.4175-1.4004-0.65836-0.22387 0.19269-0.42425 0.44791-0.59945 0.76585-0.17033 0.31312-0.26949 0.6331-0.29869 0.96067 0.5402 0.34684 1.1435 0.61225 1.8102 0.7953s1.2971 0.27544 1.8909 0.27544c0.85167 0 1.5604-0.13486 2.1249-0.40463 0.5694-0.27458 0.99518-0.64584 1.2774-1.1131 0.28714-0.46727 0.42943-0.99119 0.42943-1.5741 0-0.4191-0.085466-0.8078-0.2558-1.1643-0.17033-0.36129-0.41889-0.68472-0.74983-0.96894-0.32607-0.28904-0.72528-0.52975-1.1974-0.72244l-1.7968-0.72864c-0.3212-0.13488-0.54526-0.2751-0.6718-0.41962-0.12167-0.14452-0.1819-0.30942-0.1819-0.49248 0-0.19751 0.0868-0.38694 0.262-0.56999 0.18007-0.18787 0.47961-0.28164 0.89814-0.28164 0.3942 0 0.83944 0.073392 1.3358 0.22273 0.4964 0.14452 0.92928 0.30511 1.2992 0.47853 0.22873-0.20714 0.41254-0.46185 0.54881-0.76533 0.14113-0.3083 0.22083-0.63086 0.2403-0.96325-0.3796-0.19751-0.87427-0.38107-1.4826-0.55449-0.60347-0.17824-1.2504-0.26769-1.9415-0.26769zm8.8341 2.6505c-0.47694 0-0.91559 0.11656-1.3147 0.34778-0.26874 0.15764-0.45883 0.38705-0.66198 0.60513-0.050342-0.092119-0.032093-0.24567-0.097669-0.32401-0.2774-0.34203-0.64716-0.5116-1.1095-0.5116h-0.60513l-0.10387 0.099219v10.233l0.10387 0.1018h0.89039c0.44774 0 0.76519-0.1005 0.95499-0.30283 0.19467-0.20233 0.29301-0.55579 0.29301-1.0568v-1.9275c0.3942 0.20714 0.84366 0.31058 1.3498 0.31058 0.53534 0 1.0258-0.14747 1.4687-0.44132 0.44287-0.29385 0.79606-0.72452 1.0589-1.293 0.26767-0.57325 0.39998-1.2752 0.39998-2.1038 0-0.73222-0.094938-1.3765-0.28474-1.9353-0.1898-0.56362-0.47832-1.0045-0.86765-1.3224-0.38934-0.31794-0.8806-0.47853-1.4743-0.47853zm6.8027 0c-0.7738 0-1.4013 0.17458-1.8831 0.52142-0.4818 0.34203-0.83447 0.80412-1.0583 1.387-0.219 0.58289-0.32815 1.2373-0.32815 1.9647 0 0.47691 0.047361 0.94348 0.1447 1.3963 0.1022 0.448 0.27602 0.84862 0.51935 1.2051 0.24333 0.35648 0.57366 0.64174 0.99219 0.8537 0.41854 0.20714 0.94924 0.31058 1.5916 0.31058 0.52074 0 1.0362-0.06959 1.5472-0.20929 0.51587-0.1397 0.95822-0.34225 1.3281-0.6072-0.034067-0.22641-0.10089-0.46471-0.20309-0.71521-0.1022-0.2505-0.23998-0.45892-0.41031-0.6227-0.292 0.12043-0.59658 0.22593-0.91778 0.31264-0.31634 0.081893-0.64214 0.12092-0.97307 0.12092-0.38934 0-0.67733-0.086513-0.86714-0.25993-0.1898-0.17342-0.31471-0.40102-0.37311-0.68523-0.02672-0.13004-0.026329-0.28102-0.040824-0.42013h3.7791c0.068134-0.24086 0.1155-0.46759 0.1447-0.67955 0.034067-0.21678 0.052711-0.48598 0.052711-0.80874 0-0.58289-0.12202-1.103-0.36536-1.5606-0.23847-0.46246-0.58403-0.82785-1.0366-1.0976-0.4526-0.26977-1.0004-0.40618-1.6428-0.40618zm38.356 0c-0.5694-1e-7 -1.067 0.099117-1.4904 0.29662-0.4234 0.19269-0.75291 0.46777-0.98651 0.82424-0.2336 0.35648-0.34934 0.7804-0.34934 1.2718 0 0.38538 0.079696 0.71848 0.2403 0.99788 0.1606 0.27458 0.38044 0.5065 0.65784 0.69919 0.2774 0.18787 0.58538 0.34553 0.92605 0.47078l0.81029 0.28887c0.2336 0.081893 0.40216 0.17859 0.50436 0.28939 0.10707 0.10598 0.15968 0.22927 0.15968 0.36897-1e-6 0.14452-0.072592 0.26488-0.21859 0.36122-0.14113 0.096345-0.35232 0.14469-0.63459 0.14469-0.34067 0-0.68387-0.05802-1.0294-0.17363-0.34067-0.12043-0.66811-0.26203-0.98444-0.42582-0.17033 0.17342-0.31892 0.40827-0.44545 0.70694-0.12167 0.29867-0.18716 0.56788-0.19689 0.80874 0.34554 0.19269 0.75133 0.36001 1.2185 0.49971 0.47207 0.1397 0.96755 0.20929 1.4883 0.20929 0.98794 0 1.7598-0.21326 2.3146-0.63717 0.55967-0.42392 0.83975-0.99273 0.83975-1.7105 0-0.61661-0.18462-1.1117-0.55449-1.4826-0.36987-0.37093-0.8322-0.65326-1.387-0.84595l-0.90589-0.31626c-0.19467-0.067442-0.3346-0.14583-0.4222-0.23255s-0.13281-0.19308-0.13281-0.31833c0-0.12525 0.052312-0.23249 0.15451-0.32401 0.1022-0.091528 0.25027-0.13694 0.44494-0.13694 0.34554 0 0.69584 0.056469 1.0511 0.17208 0.35527 0.1108 0.68426 0.23409 0.98599 0.36897 0.12167-0.091528 0.23081-0.22587 0.32815-0.40411 0.1022-0.17824 0.17901-0.37405 0.23255-0.58601 0.053533-0.21196 0.076396-0.40484 0.066663-0.57826-0.31634-0.15415-0.72842-0.2923-1.2346-0.41755-0.50614-0.12525-0.98875-0.18965-1.4511-0.18965zm6.8534 0c-0.7738 0-1.4008 0.17458-1.8826 0.52142-0.4818 0.34203-0.83499 0.80412-1.0589 1.387-0.219 0.58289-0.32815 1.2373-0.32815 1.9647 0 0.47691 0.04736 0.94348 0.14469 1.3963 0.1022 0.448 0.27602 0.84862 0.51935 1.2051 0.24334 0.35648 0.57366 0.64174 0.99219 0.8537 0.41854 0.20714 0.94976 0.31058 1.5922 0.31058 0.52074 0 1.0357-0.06959 1.5467-0.20929 0.51587-0.1397 0.96029-0.34225 1.3302-0.6072-0.034067-0.22641-0.10296-0.46471-0.20516-0.71521-0.1022-0.2505-0.23791-0.45892-0.40825-0.6227-0.292 0.12043-0.59864 0.22593-0.91985 0.31264-0.31633 0.081893-0.64007 0.12092-0.97101 0.12092-0.38934 0-0.67888-0.086513-0.86869-0.25993-0.1898-0.17342-0.31471-0.40102-0.37311-0.68523-0.02672-0.13004-0.026847-0.28102-0.041342-0.42013h3.7796c0.068134-0.24086 0.11704-0.46759 0.14624-0.67955 0.034066-0.21678 0.050643-0.48598 0.050643-0.80874 0-0.58289-0.1215-1.103-0.36484-1.5606-0.23847-0.46246-0.58455-0.82785-1.0372-1.0976s-1.0004-0.40618-1.6428-0.40618zm-36.566 0.08785c-0.51587 0-0.9748 0.13141-1.3787 0.39636-0.27082 0.1798-0.51193 0.39494-0.7581 0.60358-0.055142-0.16906-0.047903-0.3944-0.14624-0.52349-0.219-0.29867-0.54851-0.447-0.98651-0.447h-0.86094l-0.1018 0.099219v7.213c0.17033 0.028894 0.35496 0.047205 0.55449 0.056845 0.2044 0.014453 0.40035 0.021187 0.59015 0.021187 0.19467 0 0.39216-0.006734 0.5917-0.021187 0.2044-0.009627 0.38614-0.027938 0.54674-0.056845v-4.8183c0.18944-0.16925 0.37771-0.29888 0.56276-0.37672 0.19954-0.081893 0.37417-0.12299 0.52504-0.12299 0.24334 0 0.40768 0.07926 0.49041 0.23823 0.0876 0.15415 0.13074 0.39487 0.13074 0.72244v3.0784c0 0.448 0.089685 0.79215 0.26975 1.033 0.18007 0.24086 0.49958 0.36122 0.95705 0.36122 0.28714 0 0.55434-0.044899 0.80254-0.13643 0.2482-0.096345 0.45569-0.2129 0.62115-0.34778-0.13627-0.18306-0.23172-0.39718-0.28526-0.64286-0.053534-0.2505-0.080098-0.51539-0.080099-0.79479v-2.9626c1e-6 -0.50581-0.078363-0.95253-0.2341-1.3379-0.15574-0.38538-0.38402-0.6855-0.68575-0.90228-0.30174-0.22159-0.67727-0.33228-1.125-0.33228zm12.082 0c-0.19953 0-0.40702 0.024175-0.62116 0.072348-0.21414 0.043355-0.42902 0.10863-0.64803 0.19534l1.4159 6.1056c0.097334 0.42874 0.25828 0.71348 0.48214 0.85318 0.22874 0.13488 0.55617 0.20102 0.98444 0.20102 0.27254 0 0.5663-0.006734 0.88264-0.021188 0.3212-0.014453 0.6018-0.035689 0.84026-0.064596l0.4098-2.5213c0.038934-0.24086 0.07919-0.50575 0.12299-0.79479 0.043801-0.29385 0.087459-0.60329 0.13126-0.92605 0.048667-0.32276 0.090991-0.64705 0.12506-0.97462h0.08785c0.038935 0.33239 0.079191 0.661 0.12299 0.98858 0.0438 0.32757 0.089009 0.63943 0.13281 0.93328 0.043801 0.29385 0.081173 0.56013 0.11524 0.80099l0.24805 1.5544c0.068133 0.44319 0.21538 0.72552 0.43925 0.84595 0.22387 0.12043 0.55419 0.17932 0.99219 0.17932 0.26767 0 0.55774-0.006734 0.8692-0.021188 0.31147-0.00964 0.58207-0.030876 0.81081-0.064596l1.7007-6.9727-0.066147-0.13074c-0.1606-0.081894-0.3652-0.13404-0.6134-0.15813-0.24334-0.024086-0.44372-0.037207-0.59945-0.037207-0.13627 0-0.28485 0.0072522-0.44545 0.021704-0.15573 0.014452-0.29515 0.038627-0.42168 0.072348l-0.65061 3.158c-0.087601 0.44319-0.16308 0.86712-0.22634 1.2718-0.063268 0.40465-0.12217 0.77297-0.1757 1.1054-0.0584 0-0.095772-0.038163-0.11524-0.11524l-0.82631-5.348c-0.17033-0.043355-0.4015-0.071331-0.6935-0.085783-0.28714-0.019269-0.50543-0.029456-0.65629-0.029456-0.13627 0-0.34375 0.010187-0.62116 0.029456-0.2774 0.014452-0.50805 0.042428-0.69298 0.085783l-0.80306 5.4633c-0.063267 0-0.10219-0.038163-0.11679-0.11524-0.024334-0.2505-0.070876-0.57392-0.13901-0.96894-0.063267-0.39502-0.14296-0.82568-0.2403-1.293l-0.4532-2.3337c-0.063266-0.3083-0.16901-0.54522-0.31988-0.709-0.146-0.1686-0.40291-0.25218-0.76792-0.25218zm11.549 0.072348c-0.1606 0-0.35892 0.0067354-0.59738 0.021187-0.2336 0.0096346-0.46343 0.027074-0.6873 0.05116-0.034067 0.13007-0.057748 0.26735-0.072348 0.41186-0.0146 0.1397-0.021704 0.27111-0.021704 0.39636 0 0.26495 0.030785 0.52017 0.094052 0.76585h0.21859c0.25793 0 0.43597 0.07926 0.5333 0.23823 0.1022 0.15897 0.154 0.36065 0.154 0.60152v4.7832c0.17033 0.028894 0.35547 0.047205 0.55501 0.056845 0.2044 0.014453 0.4019 0.021187 0.5917 0.021187 0.19954 0 0.39785-0.006734 0.59738-0.021187 0.19954-0.009627 0.38045-0.027938 0.54106-0.056845v-5.5428c0-0.5299-0.14436-0.94951-0.4315-1.2578-0.28227-0.31312-0.66861-0.46871-1.1601-0.46871h-0.31471zm-32.287 1.4454c0.2336 0 0.41874 0.05802 0.55501 0.17363 0.14114 0.1108 0.24318 0.25965 0.30644 0.44752 0.063266 0.18306 0.094051 0.38561 0.094051 0.6072v0.16588h-1.8593c0.028502-0.36984 0.050425-0.75279 0.15193-0.96067 0.146-0.28904 0.39663-0.43357 0.7519-0.43357zm45.209 0c0.2336 0 0.41822 0.05802 0.55449 0.17363 0.14114 0.1108 0.24318 0.25965 0.30644 0.44752 0.063267 0.18306 0.094052 0.38561 0.094052 0.6072v0.16588h-1.8593c0.028502-0.36984 0.050941-0.75279 0.15245-0.96067 0.146-0.28904 0.39663-0.43357 0.7519-0.43357zm-29.879 0.14418c0.23847 0 0.50279 0.083578 0.79479 0.25218 0.051627 0.028958 0.10112 0.072437 0.15245 0.10335v3.1332c-0.16815 0.20191-0.33899 0.3745-0.5178 0.45682-0.2044 0.091528-0.38326 0.13694-0.53899 0.13694-0.16547 0-0.31694-0.065272-0.4532-0.19534-0.1314-0.13488-0.23633-0.34175-0.31419-0.62115-0.073001-0.28422-0.10956-0.64874-0.10956-1.0919 0-0.448 0.033669-0.83325 0.1018-1.156 0.068133-0.32757 0.17306-0.57692 0.3142-0.75035 0.146-0.17824 0.33691-0.26769 0.57051-0.26769zm-22.711 0.064596c0.17034 0 0.3218 0.065272 0.4532 0.19534 0.13627 0.13007 0.23913 0.33694 0.31213 0.62115 0.077868 0.2794 0.11731 0.64392 0.11731 1.0919 0 0.44319-0.033152 0.82844-0.10129 1.156-0.063266 0.32276-0.16871 0.57159-0.31471 0.74983-0.146 0.17342-0.33484 0.262-0.56844 0.262-0.23847 0-0.50485-0.082194-0.79686-0.24598-0.053287-0.030396-0.10691-0.076836-0.1602-0.10955v-3.127c0.1711-0.20483 0.34314-0.37861 0.5178-0.45682 0.20927-0.091528 0.39019-0.13694 0.54106-0.13694z" fill="#fff" stroke-width="0"/>
 <path d="m1.5119e-4 9.9091q0.0438-0.49136 0.2993-0.96104 0.2628-0.47691 0.5986-0.76594 0.6205 0.36129 1.4016 0.65756 0.7811 0.28904 1.5622 0.28904 0.6351 0 0.91251-0.30349 0.2774-0.30349 0.2774-0.65033 0-0.23123-0.1533-0.52749-0.1533-0.30349-0.7665-0.55639l-1.7593-0.72259q-0.90521-0.37575-1.4965-1.0044-0.5913-0.62865-0.5913-1.662 0-0.90324 0.4745-1.5752 0.4745-0.67923 1.2775-1.055 0.8103-0.38297 1.8031-0.38297 1.0366 0 1.9418 0.26736 0.91251 0.26013 1.4819 0.55639-0.0292 0.49859-0.2409 0.96104-0.2044 0.45523-0.5475 0.76594-0.5548-0.26013-1.2994-0.47691-0.7446-0.224-1.3359-0.224-0.6278 0-0.89791 0.28181-0.2628 0.27458-0.2628 0.57084 0 0.27458 0.1825 0.49136 0.1898 0.21678 0.6716 0.4191l1.7958 0.72981q0.7081 0.28904 1.1972 0.72259 0.4964 0.42633 0.7519 0.96827 0.2555 0.53472 0.2555 1.1634 0 0.87433-0.4307 1.5752-0.4234 0.70091-1.2775 1.1128-0.8468 0.40465-2.1243 0.40465-0.8906 0-1.8907-0.27458-1.0001-0.27458-1.8104-0.79485zm9.49-6.4527q0.6935 0 1.1096 0.51304 0.4234 0.50581 0.4234 1.3946v7.1681q0 0.75149-0.292 1.055-0.2847 0.30349-0.9563 0.30349h-0.8906l-0.1022-0.10116v-10.232l0.1022-0.10116zm5.8108 3.6202q0 1.2429-0.4015 2.1027-0.3942 0.85265-1.0585 1.2934t-1.4673 0.44078q-0.7592 0-1.3505-0.31071-0.584-0.31794-1.0658-0.60697l0.365-1.6041q0.4307 0.34684 0.8614 0.59252 0.438 0.24568 0.7957 0.24568 0.3504 0 0.5694-0.26013 0.219-0.26736 0.3139-0.75149 0.1022-0.49136 0.1022-1.1561 0-0.67201-0.1168-1.0911-0.1095-0.42633-0.3139-0.62143-0.1971-0.1951-0.4526-0.1951-0.2263 0-0.5402 0.13729-0.3066 0.13729-0.6059 0.53472-0.292 0.3902-0.4891 1.1561l-0.511-1.279q0.073001-0.5853 0.4526-1.1272 0.3796-0.54194 0.97091-0.88878 0.5986-0.34684 1.314-0.34684 0.8906 0 1.4746 0.47691 0.584 0.47691 0.8687 1.3223 0.2847 0.8382 0.2847 1.9365zm2.3652 0.81653v-1.5536h2.7521v-0.1662q0-0.33239-0.0949-0.60697-0.0949-0.28181-0.3066-0.448-0.2044-0.17342-0.5548-0.17342-0.5329 0-0.7519 0.43355-0.2117 0.43355-0.2117 1.3368v0.67923q0 0.49136 0.0876 0.91769 0.0876 0.42633 0.3723 0.68646t0.8687 0.26013q0.4964 0 0.9709-0.12284 0.4818-0.13007 0.91981-0.31071 0.2555 0.24568 0.4088 0.62143 0.1533 0.37575 0.2044 0.71536-0.5548 0.39742-1.3286 0.60697-0.7665 0.20955-1.5476 0.20955-0.96361 0-1.5914-0.31071-0.6278-0.31794-0.9928-0.85265-0.365-0.53472-0.5183-1.2067-0.146-0.67923-0.146-1.3946 0-1.0911 0.3285-1.9654 0.3358-0.87433 1.0585-1.3874 0.7227-0.52026 1.8834-0.52026 0.9636 0 1.6425 0.40465 0.6789 0.40465 1.0366 1.0983 0.365 0.68646 0.365 1.5608 0 0.48413-0.0511 0.8093-0.0438 0.31794-0.146 0.67923zm7.1832-4.4367q0.657 0 0.98551 0.448 0.3358 0.44078 0.3358 1.1923v5.6723q-0.2409 0.04336-0.5475 0.0578-0.2993 0.02168-0.5913 0.02168-0.2847 0-0.5913-0.02168-0.2993-0.01446-0.5548-0.0578v-7.2114l0.1022-0.10116zm5.3144 5.5061q0 0.4191 0.0803 0.79485 0.0803 0.36852 0.2847 0.6431-0.2482 0.20232-0.6205 0.34684-0.3723 0.13729-0.803 0.13729-0.6862 0-0.9563-0.36129-0.2701-0.36129-0.2701-1.0333v-3.0782q0-0.49136-0.1314-0.72259-0.1241-0.23845-0.4891-0.23845-0.2263 0-0.5256 0.12284-0.292 0.12284-0.5913 0.39742-0.292 0.26736-0.5183 0.72259v-1.9799q0.5183-0.49136 1.1169-0.88878 0.6059-0.39742 1.3797-0.39742 0.6716 0 1.1242 0.33239 0.4526 0.32516 0.6862 0.90324t0.2336 1.3368zm7.8038-0.28181q0 0.34684 0.1095 0.62865 0.1168 0.28181 0.2993 0.41188-0.0584 0.30349-0.2701 0.65033-0.2117 0.34684-0.4234 0.51304-0.9636-0.014456-1.4527-0.6431-0.4891-0.62865-0.4891-1.5319v-8.476l0.1022-0.10116h0.8906q0.6716 0 0.949 0.30349 0.2847 0.30349 0.2847 1.055zm-6.497-1.4307q0-1.2429 0.3942-2.0955 0.4015-0.85988 1.0658-1.3007 0.6643-0.44078 1.4673-0.44078 0.7592 0 1.3432 0.31071t1.0731 0.59975l-0.365 1.6041q-0.4234-0.33962-0.8614-0.5853-0.438-0.25291-0.7957-0.25291-0.3504 0-0.5694 0.26736-0.2117 0.26013-0.3139 0.75149-0.1022 0.48413-0.1022 1.1561 0 0.66478 0.1095 1.0911 0.1168 0.4191 0.3139 0.62143 0.2044 0.1951 0.4526 0.1951 0.2336 0 0.5402-0.13729 0.3139-0.14452 0.6059-0.53472 0.2993-0.39742 0.4891-1.1561l0.5183 1.279q-0.0657 0.5853-0.4526 1.1272-0.3796 0.53472-0.97821 0.88156-0.5913 0.34684-1.314 0.34684-0.8833 0-1.4673-0.47691-0.584-0.47691-0.8687-1.3151-0.2847-0.84543-0.2847-1.9365zm7.4606-3.5551q0.3285-0.13007 0.6497-0.1951 0.3212-0.072259 0.6205-0.072259 0.5475 0 0.7665 0.25291 0.2263 0.24568 0.3212 0.70814l0.4526 2.334q0.146 0.70091 0.2409 1.2934 0.1022 0.59252 0.1387 0.96827 0.0219 0.11561 0.1168 0.11561l0.803-5.4628q0.2774-0.065033 0.6935-0.086711 0.4161-0.028903 0.6205-0.028903 0.2263 0 0.657 0.028903 0.438 0.021678 0.6935 0.086711l0.8249 5.3472q0.0292 0.11561 0.1168 0.11561 0.0803-0.49859 0.1752-1.1056 0.0949-0.60697 0.2263-1.2718l0.6497-3.1577q0.1898-0.050581 0.4234-0.072259 0.2409-0.021678 0.4453-0.021678 0.2336 0 0.5986 0.036129 0.3723 0.036129 0.6132 0.15897l0.0657 0.13007-1.7009 6.973q-0.3431 0.05058-0.8103 0.06504-0.4672 0.02168-0.8687 0.02168-0.657 0-0.99281-0.18065-0.3358-0.18065-0.438-0.84543l-0.2482-1.5536q-0.0511-0.36129-0.1168-0.80207-0.0657-0.44078-0.1314-0.93214-0.0657-0.49136-0.1241-0.98995h-0.087604q-0.0511 0.49136-0.1241 0.97549-0.0657 0.48413-0.1314 0.92491-0.0657 0.43355-0.1241 0.79485l-0.4088 2.5218q-0.3577 0.04336-0.8395 0.06504-0.4745 0.02168-0.8833 0.02168-0.6424 0-0.9855-0.20232-0.3358-0.20956-0.4818-0.85266zm14.724 7.0741q-0.2409 0.04336-0.5402 0.0578-0.2993 0.02168-0.5986 0.02168-0.2847 0-0.5913-0.02168-0.2993-0.01446-0.5548-0.0578v-4.7835q0-0.36129-0.1533-0.59975-0.146-0.23845-0.5329-0.23845h-0.219q-0.0949-0.36852-0.0949-0.76594 0-0.18787 0.0219-0.39742 0.0219-0.21678 0.073-0.41188 0.3358-0.036129 0.6862-0.050581 0.3577-0.021678 0.5986-0.021678h0.3139q0.7373 0 1.1607 0.46968 0.4307 0.46246 0.4307 1.2573zm-2.7229-9.2419q0-0.20232 0.0438-0.4191 0.0438-0.224 0.1241-0.42633 0.1898-0.093936 0.4891-0.15897 0.3066-0.065033 0.5986-0.065033 0.2993 0 0.6059 0.065033 0.3139 0.065033 0.4818 0.15897 0.0803 0.20232 0.1241 0.43355 0.0438 0.224 0.0438 0.41188 0 0.1951-0.0438 0.4191t-0.1241 0.4191q-0.1679 0.093937-0.4818 0.15897-0.3066 0.065033-0.6059 0.065033-0.292 0-0.6059-0.057807-0.3139-0.065033-0.4818-0.1662-0.0803-0.1951-0.1241-0.4191-0.0438-0.224-0.0438-0.4191zm3.8617 8.7433q0.0146-0.36129 0.1971-0.8093 0.1898-0.448 0.4453-0.70814 0.4745 0.24568 0.98551 0.42633 0.5183 0.17342 1.0293 0.17342 0.4234 0 0.6351-0.14452 0.219-0.14452 0.219-0.36129 0-0.20955-0.1606-0.36852-0.1533-0.1662-0.5037-0.28904l-0.8103-0.28904q-0.511-0.18787-0.9271-0.46968-0.4161-0.28904-0.657-0.70091-0.2409-0.4191-0.2409-0.99717 0-0.73704 0.3504-1.2718 0.3504-0.53472 0.98551-0.82375 0.6351-0.29626 1.4892-0.29626 0.6935 0 1.4527 0.18787 0.7592 0.18787 1.2337 0.4191 0.0146 0.26013-0.0657 0.57807t-0.2336 0.5853q-0.146 0.26736-0.3285 0.40465-0.45261-0.20232-0.98551-0.36852-0.5329-0.17342-1.0512-0.17342-0.292 0-0.4453 0.13729-0.1533 0.13729-0.1533 0.32516 0 0.18787 0.1314 0.31794 0.1314 0.13007 0.4234 0.23123l0.9052 0.31794q0.8322 0.28904 1.387 0.84543 0.5548 0.55639 0.5548 1.4813 0 1.0767-0.8395 1.7125-0.8322 0.63588-2.3141 0.63588-0.7811 0-1.4892-0.20955-0.7008-0.20955-1.2191-0.49859zm8.0812-2.3773v-1.5536h2.7521v-0.1662q0-0.33239-0.0949-0.60697-0.0949-0.28181-0.3066-0.448-0.2044-0.17342-0.5548-0.17342-0.5329 0-0.7519 0.43355-0.2117 0.43355-0.2117 1.3368v0.67923q0 0.49136 0.0876 0.91769 0.0876 0.42633 0.3723 0.68646t0.8687 0.26013q0.4964 0 0.9709-0.12284 0.4818-0.13007 0.91981-0.31071 0.2555 0.24568 0.4088 0.62143 0.1533 0.37575 0.2044 0.71536-0.5548 0.39742-1.3286 0.60697-0.7665 0.20955-1.5476 0.20955-0.96361 0-1.5914-0.31071-0.6278-0.31794-0.9928-0.85265-0.365-0.53472-0.5183-1.2067-0.146-0.67923-0.146-1.3946 0-1.0911 0.3285-1.9654 0.3358-0.87433 1.0585-1.3874 0.7227-0.52026 1.8834-0.52026 0.9636 0 1.6425 0.40465 0.6789 0.40465 1.0366 1.0983 0.365 0.68646 0.365 1.5608 0 0.48413-0.0511 0.8093-0.0438 0.31794-0.146 0.67923z" fill="#fff" stroke-width="0" aria-label="Spendwise"/>
</svg>
