<?xml version="1.0" encoding="UTF-8"?>
<svg width="256" height="53" version="1.1" viewBox="0 0 67.733 14.023" xmlns="http://www.w3.org/2000/svg">
 <g fill="#232633" stroke-width="0">
  <path d="m35.846 0.13281-0.10387 0.1018v3.4882c-0.38936-0.20715-0.83536-0.31058-1.3415-0.31058-0.53536 0-1.0258 0.14746-1.4686 0.44132-0.44289 0.29386-0.79686 0.72743-1.0645 1.3007-0.26282 0.56845-0.39481 1.2674-0.39481 2.096 0 0.72742 0.093377 1.3717 0.28319 1.9353 0.18981 0.55881 0.47984 0.99877 0.8692 1.3167 0.38935 0.31794 0.87975 0.47646 1.4686 0.47646 0.48182 0 0.91836-0.11655 1.3126-0.34778 0.301-0.1744 0.52051-0.41839 0.73846-0.66404 0.048044 0.08117 0.02929 0.20017 0.08785 0.27544 0.32608 0.4191 0.81071 0.6327 1.4531 0.64234 0.14114-0.1108 0.28054-0.28243 0.42168-0.51366 0.14114-0.23123 0.23288-0.44776 0.27182-0.65009-0.12167-0.086712-0.22289-0.2245-0.30076-0.41238-0.073004-0.18788-0.10955-0.3956-0.10955-0.62684v-7.1913c0-0.501-0.093377-0.85239-0.28319-1.0547-0.18494-0.20233-0.50154-0.30282-0.9493-0.30282h-0.89038zm16.346 0.32401c-0.19468 0-0.39555 0.023307-0.59996 0.066663-0.19954 0.043356-0.3618 0.095504-0.48834 0.15813-0.053538 0.13489-0.095857 0.27648-0.12506 0.42581-0.0292 0.14452-0.042891 0.28524-0.042891 0.42013 0 0.13007 0.013691 0.26821 0.042891 0.41755 0.029204 0.14934 0.071523 0.29006 0.12506 0.42013 0.11194 0.067443 0.27131 0.12253 0.48059 0.16588 0.20928 0.038539 0.41304 0.058911 0.60772 0.058911 0.19954-1e-7 0.40072-0.023307 0.60513-0.066663 0.20928-0.043356 0.37072-0.095505 0.48266-0.15813 0.053537-0.13007 0.09379-0.27079 0.12299-0.42013 0.0292-0.14934 0.042891-0.28748 0.042891-0.41755 0-0.12525-0.013691-0.26304-0.042891-0.41238-0.029204-0.15415-0.069457-0.29868-0.12299-0.43357-0.11194-0.062625-0.27338-0.11477-0.48266-0.15813-0.20441-0.043356-0.40559-0.066663-0.60513-0.066663zm-48.352 0.23254c-0.6619 1e-8 -1.2628 0.1276-1.803 0.38292-0.53536 0.2505-0.96109 0.60189-1.2774 1.0547-0.31635 0.44801-0.47439 0.9719-0.47439 1.5741 0 0.68888 0.19747 1.2433 0.5917 1.6624 0.39422 0.41911 0.89253 0.75512 1.496 1.0056l1.7596 0.72244c0.40882 0.16861 0.66364 0.35268 0.76584 0.555 0.10221 0.19751 0.15451 0.37501 0.15451 0.52917 0 0.23123-0.092559 0.44621-0.2775 0.64854-0.18494 0.20233-0.49073 0.30489-0.91416 0.30489-0.52076 0-1.0414-0.096694-1.5622-0.28939-0.52076-0.19751-0.98674-0.41749-1.4004-0.65836-0.22388 0.19269-0.42475 0.4479-0.59996 0.76584-0.17034 0.31313-0.26949 0.6336-0.29869 0.96118 0.54023 0.34685 1.144 0.61173 1.8107 0.79478 0.66677 0.18306 1.2966 0.27544 1.8903 0.27544 0.85171 0 1.5604-0.13486 2.1249-0.40463 0.56943-0.27459 0.99516-0.64583 1.2774-1.1131 0.28715-0.46728 0.42995-0.99117 0.42995-1.5741 0-0.41911-0.083906-0.80779-0.25425-1.1643-0.17034-0.3613-0.42094-0.68471-0.75189-0.96893-0.32608-0.28904-0.72525-0.52974-1.1973-0.72244l-1.7968-0.73019c-0.32122-0.13489-0.54525-0.27354-0.67179-0.41806-0.12167-0.14452-0.18138-0.30942-0.18138-0.49248 0-0.19751 0.086274-0.38693 0.26148-0.56999 0.18008-0.18788 0.4801-0.28164 0.89865-0.28164 0.39422 0 0.83941 0.073388 1.3358 0.22273 0.49643 0.14452 0.93081 0.3051 1.3007 0.47852 0.22875-0.20715 0.41046-0.4639 0.54674-0.7674 0.14114-0.30831 0.22083-0.62879 0.2403-0.96118-0.37962-0.19751-0.87423-0.38106-1.4826-0.55449-0.6035-0.17824-1.2499-0.26768-1.941-0.26768zm8.8336 2.6505c-0.47696 0-0.91504 0.11655-1.3141 0.34778-0.26876 0.15764-0.45933 0.38704-0.66249 0.60513-0.050344-0.09212-0.032089-0.24567-0.097668-0.32401-0.27742-0.34203-0.64662-0.5116-1.109-0.5116h-0.60565l-0.10129 0.099736v10.232l0.10129 0.1018h0.8909c0.44776 0 0.76724-0.1005 0.95705-0.30282 0.19468-0.20233 0.29094-0.55578 0.29094-1.0568v-1.9275c0.39422 0.20714 0.84518 0.31058 1.3513 0.31058 0.53536 0 1.0242-0.14746 1.4671-0.44132 0.44289-0.29386 0.79552-0.7245 1.0583-1.2929 0.26768-0.57326 0.40049-1.2752 0.40049-2.1037 0-0.73224-0.093376-1.3765-0.28319-1.9353-0.18981-0.56363-0.47984-1.0045-0.8692-1.3224s-0.88108-0.47852-1.4748-0.47852zm6.8048 0c-0.77384-1e-7 -1.4028 0.17457-1.8846 0.52142-0.48183 0.34203-0.83497 0.8041-1.0588 1.387-0.21901 0.5829-0.32763 1.2373-0.32763 1.9647 0 0.47692 0.048905 0.94347 0.14624 1.3963 0.1022 0.44801 0.27445 0.84861 0.5178 1.2051 0.24335 0.35648 0.57363 0.64173 0.99219 0.85369 0.41856 0.20714 0.9492 0.31058 1.5916 0.31058 0.52076 0 1.0377-0.069587 1.5487-0.20929 0.51589-0.1397 0.9582-0.34224 1.3281-0.6072-0.034068-0.22641-0.10295-0.46418-0.20516-0.71468-0.1022-0.2505-0.2379-0.45943-0.40824-0.62322-0.29202 0.12043-0.59862 0.22593-0.91984 0.31264-0.31635 0.081895-0.63953 0.12092-0.97048 0.12092-0.38935 0-0.67939-0.086508-0.8692-0.25993-0.18981-0.17342-0.31263-0.40101-0.37104-0.68523-0.026723-0.13004-0.026845-0.28101-0.041341-0.42013h3.7775c0.068138-0.24087 0.11704-0.46758 0.14624-0.67955 0.034067-0.21678 0.05116-0.48597 0.05116-0.80874 0-0.5829-0.122-1.103-0.36535-1.5606-0.23848-0.46246-0.58246-0.82784-1.0351-1.0976-0.45262-0.26977-1.0004-0.40618-1.6428-0.40618zm38.356 0c-0.56943 0-1.0669 0.099112-1.4903 0.29662-0.42342 0.19269-0.75082 0.46776-0.98444 0.82424-0.23361 0.35648-0.3514 0.78039-0.3514 1.2718 0 0.38539 0.081237 0.71847 0.24185 0.99787 0.16061 0.27459 0.37888 0.50649 0.65629 0.69918 0.27741 0.18788 0.58691 0.34552 0.92759 0.47077l0.8108 0.28939c0.23361 0.081895 0.40164 0.17807 0.50384 0.28887 0.10707 0.10598 0.1602 0.22927 0.1602 0.36897 0 0.14452-0.072583 0.26487-0.21859 0.36122-0.14114 0.096347-0.35282 0.14469-0.6351 0.14469-0.34068 0-0.68332-0.058017-1.0289-0.17363-0.34068-0.12043-0.67015-0.26409-0.9865-0.42788-0.17034 0.17342-0.31891 0.41033-0.44545 0.709-0.12167 0.29867-0.18767 0.56787-0.1974 0.80874 0.34555 0.19269 0.75182 0.36001 1.219 0.49971 0.47209 0.1397 0.96959 0.20929 1.4903 0.20929 0.98799 0 1.7592-0.21273 2.3141-0.63665 0.5597-0.42393 0.83819-0.99322 0.83819-1.711 0-0.61662-0.18512-1.1117-0.555-1.4826s-0.83165-0.65273-1.3865-0.84543l-0.90434-0.31678c-0.19468-0.067443-0.33614-0.14583-0.42375-0.23254-0.087605-0.086712-0.13074-0.19308-0.13074-0.31833 0-0.12525 0.049724-0.23248 0.15193-0.32401 0.10221-0.091529 0.25077-0.13694 0.44545-0.13694 0.34555 0 0.69581 0.056466 1.0511 0.17208 0.35528 0.1108 0.68424 0.23408 0.98599 0.36897 0.12167-0.091529 0.23081-0.22587 0.32814-0.40411 0.10221-0.17824 0.18108-0.37405 0.23461-0.58601 0.05354-0.21196 0.073813-0.40484 0.064079-0.57826-0.31635-0.15415-0.7258-0.29229-1.232-0.41755-0.50616-0.12525-0.99078-0.18965-1.4531-0.18965zm6.8554 0c-0.77384-1e-7 -1.4033 0.17457-1.8852 0.52142-0.48183 0.34203-0.83446 0.8041-1.0583 1.387-0.21901 0.5829-0.32814 1.2373-0.32814 1.9647 0 0.47692 0.048906 0.94347 0.14624 1.3963 0.1022 0.44801 0.27445 0.84861 0.5178 1.2051 0.24335 0.35648 0.5757 0.64173 0.99426 0.85369 0.41856 0.20714 0.9492 0.31058 1.5916 0.31058 0.52076 0 1.0362-0.069587 1.5472-0.20929 0.51589-0.1397 0.9582-0.34224 1.3281-0.6072-0.034068-0.22641-0.10088-0.46418-0.20309-0.71468-0.10221-0.2505-0.23997-0.45943-0.41031-0.62322-0.29202 0.12043-0.59862 0.22593-0.91984 0.31264-0.31635 0.081895-0.64005 0.12092-0.971 0.12092-0.38935 0-0.67939-0.086508-0.8692-0.25993-0.18981-0.17342-0.31263-0.40101-0.37104-0.68523-0.026723-0.13004-0.026327-0.28101-0.040824-0.42013h3.7775c0.068139-0.24087 0.11704-0.46758 0.14624-0.67955 0.034066-0.21678 0.050643-0.48597 0.050643-0.80874 0-0.5829-0.12201-1.103-0.36535-1.5606-0.23848-0.46246-0.58246-0.82784-1.0351-1.0976-0.45262-0.26977-0.99984-0.40618-1.6423-0.40618zm-36.568 0.08785c-0.51589 0-0.97529 0.1314-1.3792 0.39636-0.27083 0.17981-0.5114 0.39493-0.75758 0.60358-0.055151-0.16918-0.049911-0.39432-0.14831-0.52348-0.21901-0.29867-0.54641-0.447-0.98444-0.447h-0.86351l-0.10129 0.099736v7.2125c0.17034 0.028894 0.35494 0.047204 0.55449 0.056844 0.20441 0.014453 0.40188 0.021188 0.5917 0.021188 0.19468 0 0.39215-0.006735 0.5917-0.021188 0.20441-0.009627 0.38664-0.027937 0.54725-0.056844v-4.8183c0.18945-0.16926 0.37718-0.29887 0.56224-0.37672 0.19954-0.081895 0.37467-0.12299 0.52555-0.12299 0.24335 0 0.4056 0.079256 0.48834 0.23823 0.087605 0.15415 0.13281 0.39486 0.13281 0.72244v3.0784c0 0.44801 0.089157 0.79214 0.26923 1.033 0.18008 0.24087 0.49956 0.36122 0.95705 0.36122 0.28715 0 0.55484-0.044897 0.80305-0.13643 0.24821-0.096347 0.45568-0.2129 0.62115-0.34778-0.13628-0.18306-0.23172-0.39665-0.28525-0.64234-0.053534-0.2505-0.080098-0.51589-0.080098-0.7953v-2.9626c0-0.50582-0.07887-0.95252-0.23461-1.3379-0.15574-0.38539-0.38348-0.68549-0.68523-0.90227-0.30175-0.2216-0.67724-0.33228-1.125-0.33228zm12.082 0c-0.19954 0-0.40701 0.024174-0.62115 0.072347-0.21414 0.043356-0.42953 0.10862-0.64854 0.19534l1.4159 6.1056c0.097338 0.42874 0.25878 0.71348 0.48266 0.85318 0.22875 0.13488 0.55615 0.20154 0.98444 0.20154 0.27255 0 0.56628-0.00725 0.88263-0.021704 0.32122-0.014453 0.60126-0.035689 0.83974-0.064596l0.41031-2.5213c0.03893-0.24087 0.079183-0.50574 0.12299-0.79478 0.043798-0.29386 0.086935-0.60328 0.13074-0.92604 0.048671-0.32276 0.090989-0.64704 0.12506-0.97462h0.08785c0.038935 0.3324 0.079188 0.66099 0.12299 0.98857 0.043802 0.32758 0.089006 0.63942 0.13281 0.93328 0.043802 0.29386 0.08117 0.56012 0.11524 0.80098l0.25011 1.5544c0.068137 0.4432 0.21382 0.72551 0.4377 0.84594 0.22388 0.12043 0.55416 0.17983 0.99219 0.17983 0.26768 0 0.55772-0.00725 0.8692-0.021704 0.31148-0.00964 0.58154-0.030876 0.81029-0.064596l1.7012-6.9743-0.066146-0.12919c-0.16061-0.081895-0.36519-0.13404-0.6134-0.15813-0.24335-0.024087-0.44215-0.037207-0.5979-0.037207-0.13627 0-0.28432 0.0072521-0.44493 0.021704-0.15574 0.014452-0.29772 0.038626-0.42426 0.072347l-0.65009 3.1579c-0.087601 0.4432-0.16359 0.8671-0.22686 1.2718-0.063273 0.40466-0.1201 0.77296-0.17363 1.1054-0.058404 0-0.097838-0.038161-0.1173-0.11524l-0.82579-5.348c-0.17034-0.043356-0.40148-0.071331-0.6935-0.085783-0.28715-0.019269-0.50542-0.029456-0.65629-0.029456-0.13627 0-0.34374 0.010186-0.62115 0.029456-0.27742 0.014452-0.50855 0.042427-0.6935 0.085783l-0.80254 5.4632c-0.06327 0-0.10271-0.038161-0.11731-0.11524-0.024335-0.2505-0.070356-0.57391-0.13849-0.96893-0.06327-0.39502-0.14296-0.82566-0.2403-1.2929l-0.4532-2.3337c-0.06327-0.30831-0.16952-0.54521-0.32039-0.709-0.14601-0.16861-0.40238-0.25218-0.7674-0.25218zm11.549 0.072347c-0.16061 0-0.3589 0.0067353-0.59738 0.021187-0.23361 0.009634-0.46393 0.027072-0.68781 0.05116-0.034067 0.13007-0.057747 0.26734-0.072347 0.41186-0.0146 0.1397-0.021188 0.27111-0.021188 0.39636 0 0.26495 0.030262 0.52016 0.093535 0.76584h0.22066c0.25795 0 0.4339 0.079256 0.53123 0.23823 0.1022 0.15897 0.15451 0.36065 0.15451 0.60151v4.7832c0.17034 0.028894 0.35494 0.047204 0.55449 0.056844 0.20441 0.014453 0.40189 0.021188 0.5917 0.021188 0.19954 0 0.39835-0.006735 0.5979-0.021188 0.19954-0.009627 0.38044-0.027937 0.54105-0.056844v-5.5428c0-0.52991-0.14435-0.94949-0.4315-1.2578-0.28228-0.31313-0.66858-0.46871-1.1601-0.46871h-0.31471zm-32.289 1.4454c0.23361 0 0.41821 0.058017 0.55449 0.17363 0.14114 0.1108 0.24368 0.25964 0.30696 0.44752 0.063266 0.18306 0.095602 0.3856 0.095602 0.6072v0.16588h-1.8614c0.028493-0.36997 0.050912-0.75274 0.15244-0.96066 0.14601-0.28904 0.39661-0.43357 0.75189-0.43357zm45.211 0c0.23361 0 0.41873 0.058017 0.555 0.17363 0.14114 0.1108 0.24318 0.25964 0.30644 0.44752 0.063274 0.18306 0.095602 0.3856 0.095602 0.6072v0.16588h-1.8609c0.028493-0.36997 0.050397-0.75274 0.15193-0.96066 0.14601-0.28904 0.39661-0.43357 0.75189-0.43357zm-29.88 0.14418c0.23848 0 0.50484 0.083574 0.79685 0.25218 0.05163 0.028959 0.1006 0.072436 0.15193 0.10335v3.1331c-0.16816 0.20191-0.33846 0.37449-0.51728 0.45682-0.20441 0.091529-0.38531 0.13694-0.54105 0.13694-0.16548 0-0.31486-0.065269-0.45114-0.19534-0.13141-0.13489-0.23684-0.34175-0.31471-0.62115-0.073004-0.28422-0.10904-0.64873-0.10904-1.0919 0-0.44801 0.033149-0.83324 0.10129-1.156 0.068137-0.32758 0.17357-0.57692 0.31471-0.75034 0.14601-0.17824 0.33483-0.26768 0.56844-0.26768zm-22.711 0.064596c0.17034 0 0.3218 0.065269 0.4532 0.19534 0.13627 0.13007 0.2417 0.33693 0.31471 0.62115 0.07787 0.27941 0.11524 0.64391 0.11524 1.0919 0 0.44319-0.033666 0.82842-0.1018 1.156-0.063269 0.32276-0.1687 0.5721-0.31471 0.75034-0.14601 0.17342-0.33431 0.26148-0.56792 0.26148-0.23848 0-0.50484-0.08219-0.79685-0.24598-0.05329-0.030396-0.10691-0.076835-0.1602-0.10955v-3.1269c0.17116-0.20493 0.34463-0.37859 0.51935-0.45682 0.20928-0.091529 0.38811-0.13694 0.53899-0.13694z"/>
  <path d="m1.5421e-4 9.9091q0.043802-0.49137 0.29932-0.96106 0.26281-0.47692 0.59863-0.76596 0.62053 0.3613 1.4017 0.65757 0.78114 0.28904 1.5623 0.28904 0.63513 0 0.91255-0.30349 0.27741-0.30349 0.27741-0.65034 0-0.23123-0.15331-0.5275-0.15331-0.30349-0.76654-0.5564l-1.7594-0.7226q-0.90525-0.37575-1.4966-1.0044-0.59133-0.62866-0.59133-1.662 0-0.90325 0.47453-1.5753 0.47453-0.67924 1.2776-1.055 0.81034-0.38298 1.8032-0.38298 1.0367 0 1.9419 0.26736 0.91255 0.26014 1.482 0.5564-0.029202 0.49859-0.24091 0.96106-0.20441 0.45524-0.54753 0.76596-0.55483-0.26014-1.2995-0.47692-0.74464-0.22401-1.336-0.22401-0.62783 0-0.89795 0.28181-0.26281 0.27459-0.26281 0.57085 0 0.27459 0.18251 0.49137 0.18981 0.21678 0.67164 0.41911l1.7959 0.72983q0.70814 0.28904 1.1973 0.7226 0.49643 0.42633 0.75194 0.96828 0.25551 0.53472 0.25551 1.1634 0 0.87435-0.43072 1.5753-0.42342 0.70092-1.2776 1.1128-0.84684 0.40466-2.1244 0.40466-0.89065 0-1.8908-0.27459-1.0002-0.27459-1.8105-0.79486zm9.4905-6.4528q0.69354 0 1.1097 0.51305 0.42342 0.50582 0.42342 1.3946v7.1682q0 0.7515-0.29202 1.055-0.28472 0.30349-0.95635 0.30349h-0.89065l-0.10221-0.10116v-10.232l0.10221-0.10116zm5.8111 3.6202q0 1.2429-0.40152 2.1028-0.39422 0.85267-1.0586 1.2935t-1.4674 0.44079q-0.75924 0-1.3506-0.31072-0.58403-0.31794-1.0659-0.60698l0.36502-1.6042q0.43072 0.34685 0.86145 0.59253 0.43802 0.24568 0.79574 0.24568 0.35042 0 0.56943-0.26014 0.21901-0.26736 0.31392-0.7515 0.1022-0.49137 0.1022-1.1562 0-0.67202-0.1168-1.0911-0.10951-0.42633-0.31392-0.62144-0.19711-0.1951-0.45262-0.1951-0.22631 0-0.54023 0.13729-0.30662 0.13729-0.60593 0.53472-0.29202 0.3902-0.48912 1.1562l-0.51103-1.279q0.073003-0.58531 0.45262-1.1273 0.37962-0.54195 0.97095-0.8888 0.59863-0.34685 1.3141-0.34685 0.89065 0 1.4747 0.47692 0.58403 0.47692 0.86874 1.3224 0.28472 0.83822 0.28472 1.9366zm2.3653 0.81654v-1.5536h2.7522v-0.1662q0-0.3324-0.0949-0.60698-0.09491-0.28181-0.30662-0.44801-0.20441-0.17342-0.55483-0.17342-0.53293 0-0.75194 0.43356-0.21171 0.43356-0.21171 1.3368v0.67924q0 0.49137 0.08761 0.9177t0.37232 0.68647q0.28472 0.26014 0.86875 0.26014 0.49643 0 0.97095-0.12284 0.48182-0.13007 0.91985-0.31072 0.25551 0.24568 0.40882 0.62144 0.15331 0.37575 0.20441 0.71537-0.55483 0.39743-1.3287 0.60698-0.76654 0.20955-1.5477 0.20955-0.96365 0-1.5915-0.31072-0.62784-0.31794-0.99286-0.85267-0.36502-0.53472-0.51833-1.2067-0.14601-0.67924-0.14601-1.3946 0-1.0911 0.32852-1.9655 0.33582-0.87435 1.0586-1.3874 0.72274-0.52027 1.8835-0.52027 0.96365 0 1.6426 0.40466t1.0367 1.0984q0.36502 0.68647 0.36502 1.5608 0 0.48414-0.0511 0.80931-0.0438 0.31794-0.14601 0.67924zm7.1836-4.4368q0.65704 0 0.98555 0.44801 0.33582 0.44079 0.33582 1.1923v5.6724q-0.24091 0.04336-0.54753 0.0578-0.29932 0.02168-0.59133 0.02168-0.28472 0-0.59133-0.02168-0.29932-0.01446-0.55483-0.0578v-7.2116l0.1022-0.10116zm5.3147 5.5062q0 0.41911 0.0803 0.79486 0.0803 0.36853 0.28472 0.64311-0.24821 0.20233-0.62053 0.34685-0.37232 0.13729-0.80304 0.13729-0.68624 0-0.95635-0.3613-0.27012-0.3613-0.27012-1.0333v-3.0783q0-0.49137-0.13141-0.7226-0.12411-0.23846-0.48913-0.23846-0.22631 0-0.52563 0.12284-0.29202 0.12284-0.59133 0.39743-0.29202 0.26736-0.51833 0.7226v-1.9799q0.51833-0.49137 1.117-0.8888 0.60593-0.39743 1.3798-0.39743 0.67164 0 1.1243 0.3324 0.45262 0.32517 0.68624 0.90325 0.23361 0.57808 0.23361 1.3368zm7.8041-0.28181q0 0.34685 0.10951 0.62866 0.11681 0.28181 0.29932 0.41188-0.05841 0.30349-0.27012 0.65034-0.21171 0.34685-0.42342 0.51305-0.96365-0.014456-1.4528-0.64312-0.48913-0.62866-0.48913-1.5319v-8.4761l0.1022-0.10116h0.89065q0.67164 0 0.94905 0.30349 0.28472 0.30349 0.28472 1.055zm-6.4973-1.4307q0-1.2429 0.39422-2.0955 0.40152-0.85989 1.0659-1.3007 0.66434-0.44079 1.4674-0.44079 0.75924 0 1.3433 0.31072 0.58403 0.31072 1.0732 0.59976l-0.36502 1.6042q-0.42342-0.33962-0.86145-0.58531-0.43802-0.25291-0.79574-0.25291-0.35042 0-0.56943 0.26736-0.21171 0.26014-0.31392 0.7515-0.10221 0.48414-0.10221 1.1562 0 0.66479 0.10951 1.0911 0.1168 0.41911 0.31392 0.62144 0.20441 0.1951 0.45262 0.1951 0.23361 0 0.54023-0.13729 0.31392-0.14452 0.60593-0.53472 0.29932-0.39743 0.48913-1.1562l0.51833 1.279q-0.06571 0.58531-0.45262 1.1273-0.37962 0.53472-0.97825 0.88157-0.59133 0.34685-1.3141 0.34685-0.88335 0-1.4674-0.47692-0.58403-0.47692-0.86875-1.3151-0.28472-0.84544-0.28472-1.9366zm7.461-3.5552q0.32852-0.13007 0.64974-0.1951 0.32122-0.07226 0.62053-0.07226 0.54753 0 0.76654 0.25291 0.22631 0.24568 0.32122 0.70815l0.45262 2.334q0.14601 0.70092 0.24091 1.2935 0.1022 0.59253 0.13871 0.96828 0.0219 0.11562 0.11681 0.11562l0.80304-5.4629q0.27742-0.065034 0.69354-0.086712 0.41612-0.028904 0.62053-0.028904 0.22631 0 0.65703 0.028904 0.43802 0.021678 0.69354 0.086712l0.82494 5.3472q0.0292 0.11562 0.11681 0.11562 0.0803-0.49859 0.17521-1.1056 0.09491-0.60698 0.22631-1.2718l0.64974-3.1578q0.18981-0.050582 0.42342-0.07226 0.24091-0.021678 0.44532-0.021678 0.23361 0 0.59863 0.036131 0.37232 0.036129 0.61323 0.15897l0.06571 0.13007-1.701 6.9731q-0.34312 0.05058-0.81034 0.06504-0.46722 0.02168-0.86875 0.02168-0.65703 0-0.99285-0.18065-0.33582-0.18065-0.43802-0.84544l-0.24822-1.5536q-0.051102-0.3613-0.1168-0.80209-0.065704-0.44079-0.13141-0.93215-0.065704-0.49137-0.12411-0.98996h-0.08761q-0.0511 0.49137-0.12411 0.97551-0.06571 0.48414-0.13141 0.92493-0.06571 0.43356-0.1241 0.79486l-0.40882 2.5219q-0.35772 0.04336-0.83954 0.06504-0.47453 0.02168-0.88335 0.02168-0.64243 0-0.98555-0.20233-0.33582-0.20955-0.48183-0.85267zm14.725 7.0743q-0.24091 0.04336-0.54023 0.0578-0.29932 0.02168-0.59863 0.02168-0.28472 0-0.59133-0.02168-0.29932-0.01446-0.55483-0.0578v-4.7836q0-0.3613-0.15331-0.59976-0.14601-0.23846-0.53293-0.23846h-0.21901q-0.09491-0.36853-0.09491-0.76596 0-0.18788 0.0219-0.39743 0.0219-0.21678 0.073-0.41188 0.33582-0.036131 0.68624-0.050582 0.35772-0.021678 0.59863-0.021678h0.31392q0.73734 0 1.1608 0.46969 0.43072 0.46246 0.43072 1.2573zm-2.723-9.2421q0-0.20233 0.0438-0.41911 0.0438-0.22401 0.12411-0.42633 0.18981-0.093938 0.48913-0.15897 0.30662-0.065034 0.59863-0.065034 0.29932 0 0.60593 0.065034 0.31392 0.065034 0.48183 0.15897 0.0803 0.20233 0.12411 0.43356 0.0438 0.22401 0.0438 0.41188 0 0.1951-0.0438 0.41911-0.0438 0.22401-0.12411 0.41911-0.16791 0.093938-0.48183 0.15897-0.30662 0.065034-0.60593 0.065034-0.29202 0-0.60593-0.057808-0.31392-0.065034-0.48183-0.1662-0.0803-0.1951-0.12411-0.41911-0.0438-0.22401-0.0438-0.41911zm3.8619 8.7435q0.0146-0.3613 0.19711-0.80931 0.18981-0.44801 0.44532-0.70815 0.47452 0.24568 0.98555 0.42633 0.51833 0.17342 1.0294 0.17342 0.42342 0 0.63513-0.14452 0.21901-0.14452 0.21901-0.3613 0-0.20955-0.16061-0.36853-0.15331-0.1662-0.50373-0.28904l-0.81034-0.28904q-0.51103-0.18788-0.92715-0.46969-0.41612-0.28904-0.65704-0.70092-0.24091-0.41911-0.24091-0.99719 0-0.73705 0.35042-1.2718 0.35042-0.53472 0.98555-0.82376 0.63513-0.29627 1.4893-0.29627 0.69354 0 1.4528 0.18788 0.75924 0.18788 1.2338 0.41911 0.0146 0.26014-0.06571 0.57808-0.0803 0.31794-0.23361 0.58531-0.146 0.26736-0.32851 0.40466-0.45262-0.20233-0.98555-0.36853-0.53293-0.17342-1.0513-0.17342-0.29202 0-0.44532 0.13729-0.15331 0.13729-0.15331 0.32517t0.13141 0.31794 0.42342 0.23123l0.90525 0.31794q0.83224 0.28904 1.3871 0.84544 0.55483 0.5564 0.55483 1.4813 0 1.0767-0.83954 1.7126-0.83224 0.63589-2.3142 0.63589-0.78114 0-1.4893-0.20955-0.70084-0.20955-1.2192-0.49859zm8.0815-2.3774v-1.5536h2.7522v-0.1662q0-0.3324-0.09491-0.60698-0.0949-0.28181-0.30662-0.44801-0.20441-0.17342-0.55483-0.17342-0.53293 0-0.75194 0.43356-0.21171 0.43356-0.21171 1.3368v0.67924q0 0.49137 0.08761 0.9177t0.37232 0.68647q0.28472 0.26014 0.86875 0.26014 0.49643 0 0.97095-0.12284 0.48182-0.13007 0.91985-0.31072 0.25551 0.24568 0.40882 0.62144 0.15331 0.37575 0.20441 0.71537-0.55483 0.39743-1.3287 0.60698-0.76654 0.20955-1.5477 0.20955-0.96365 0-1.5915-0.31072-0.62784-0.31794-0.99285-0.85267-0.36502-0.53472-0.51833-1.2067-0.14601-0.67924-0.14601-1.3946 0-1.0911 0.32852-1.9655 0.33582-0.87435 1.0586-1.3874 0.72274-0.52027 1.8835-0.52027 0.96365 0 1.6426 0.40466t1.0367 1.0984q0.36502 0.68647 0.36502 1.5608 0 0.48414-0.0511 0.80931-0.0438 0.31794-0.14601 0.67924z" aria-label="Spendwise"/>
 </g>
</svg>
